{
	"asset":{
		"generator":"Khronos glTF Blender I/O v4.3.47",
		"version":"2.0"
	},
	"scene":0,
	"scenes":[
		{
			"name":"Scene",
			"nodes":[
				1
			]
		}
	],
	"nodes":[
		{
			"mesh":0,
			"name":"Cube.012",
			"rotation":[
				0.5000000596046448,
				0.5,
				-0.49999991059303284,
				0.5000000596046448
			],
			"scale":[
				0.4897039234638214,
				0.30279839038848877,
				0.35996749997138977
			],
			"translation":[
				-0.011548876762390137,
				2.587655544281006,
				-1.3384263515472412
			]
		},
		{
			"children":[
				0
			],
			"name":"ROOT"
		}
	],
	"materials":[
		{
			"doubleSided":true,
			"name":"Material",
			"normalTexture":{
				"index":0
			},
			"pbrMetallicRoughness":{
				"baseColorTexture":{
					"index":1
				},
				"metallicRoughnessTexture":{
					"index":2
				}
			}
		}
	],
	"meshes":[
		{
			"name":"Cube.036-0",
			"primitives":[
				{
					"attributes":{
						"POSITION":0,
						"NORMAL":1,
						"TEXCOORD_0":2
					},
					"indices":3,
					"material":0
				}
			]
		}
	],
	"textures":[
		{
			"sampler":0,
			"source":0
		},
		{
			"sampler":0,
			"source":1
		},
		{
			"sampler":0,
			"source":2
		}
	],
	"images":[
		{
			"mimeType":"image/png",
			"name":"portal_normal",
			"uri":"portal_normal.png"
		},
		{
			"mimeType":"image/png",
			"name":"portal_color",
			"uri":"portal_color.png"
		},
		{
			"mimeType":"image/png",
			"name":"portal_mrao",
			"uri":"portal_mrao.png"
		}
	],
	"accessors":[
		{
			"bufferView":0,
			"componentType":5126,
			"count":725,
			"max":[
				0.8965597152709961,
				1.4917421340942383,
				7.321199417114258
			],
			"min":[
				-5.433171272277832,
				-1.2912540435791016,
				-4.53835391998291
			],
			"type":"VEC3"
		},
		{
			"bufferView":1,
			"componentType":5126,
			"count":725,
			"type":"VEC3"
		},
		{
			"bufferView":2,
			"componentType":5126,
			"count":725,
			"type":"VEC2"
		},
		{
			"bufferView":3,
			"componentType":5123,
			"count":2460,
			"type":"SCALAR"
		}
	],
	"bufferViews":[
		{
			"buffer":0,
			"byteLength":8700,
			"byteOffset":0,
			"target":34962
		},
		{
			"buffer":0,
			"byteLength":8700,
			"byteOffset":8700,
			"target":34962
		},
		{
			"buffer":0,
			"byteLength":5800,
			"byteOffset":17400,
			"target":34962
		},
		{
			"buffer":0,
			"byteLength":4920,
			"byteOffset":23200,
			"target":34963
		}
	],
	"samplers":[
		{
			"magFilter":9729,
			"minFilter":9987
		}
	],
	"buffers":[
		{
			"byteLength":28120,
			"uri":"portal.bin"
		}
	]
}
